<?xml version="1.0" standalone="no"?>
<!DOCTYPE svg PUBLIC "-//W3C//DTD SVG 20010904//EN"
 "http://www.w3.org/TR/2001/REC-SVG-20010904/DTD/svg10.dtd">
<svg version="1.0" xmlns="http://www.w3.org/2000/svg"
 width="1242.523970pt" height="1236.073586pt" viewBox="0 0 1242.523970 1236.073586"
 preserveAspectRatio="xMidYMid meet">
<metadata>
Created by potrace 1.11, written by Peter Selinger 2001-2013
</metadata>
<g transform="translate(-1927.150209,4018.000000) scale(0.100000,-0.100000)"
fill="#3880ff" stroke="none">
<path d="M24930 39710 l0 -470 -2610 0 -2610 0 0 -1220 0 -1220 540 0 540 0 0
745 0 745 4725 0 4725 0 0 -745 0 -745 540 0 540 0 0 1220 0 1220 -2640 0
-2640 0 0 470 0 470 -555 0 -555 0 0 -470z"/>
<path d="M22773 37933 c-651 -780 -1522 -1376 -2583 -1766 -223 -82 -491 -166
-717 -223 -78 -20 -143 -40 -143 -43 0 -3 94 -189 208 -412 l207 -407 215 64
c118 34 262 79 320 99 l105 36 109 -113 c246 -255 441 -484 724 -848 154 -198
180 -237 167 -246 -24 -18 -352 -157 -555 -235 -391 -150 -921 -316 -1355
-423 -104 -26 -196 -49 -203 -51 -8 -3 64 -157 218 -465 229 -457 231 -460
258 -454 79 19 769 253 967 329 798 304 1589 699 2298 1147 59 37 110 68 112
68 3 0 5 -157 5 -350 l0 -350 2460 0 2460 0 0 445 0 445 -797 0 -798 0 115 61
c266 142 474 257 613 340 81 49 152 89 158 89 6 0 75 -47 153 -104 943 -688
2054 -1290 3186 -1726 242 -93 542 -202 545 -198 17 24 475 1024 472 1032 -3
6 -44 22 -93 35 -270 74 -764 231 -1089 348 -749 269 -1428 591 -2147 1020
-115 68 -208 127 -208 132 0 5 6 11 13 14 6 2 138 99 292 214 469 350 902 705
1333 1092 l202 182 0 410 0 409 -1885 0 -1885 0 0 -400 0 -400 1283 0 1282 -1
-60 -56 c-199 -184 -521 -446 -760 -618 -150 -108 -424 -291 -501 -335 l-40
-23 -105 78 c-238 180 -504 402 -773 645 -146 132 -172 151 -187 142 -53 -34
-589 -456 -589 -465 0 -17 408 -423 658 -655 127 -118 232 -218 232 -221 0 -7
-390 -216 -732 -392 -131 -67 -238 -125 -238 -130 0 -4 131 -120 290 -259 160
-138 290 -253 290 -256 0 -2 -644 -4 -1432 -4 l-1431 0 109 76 c651 455 1248
998 1728 1574 186 222 399 520 559 782 l77 125 0 391 0 392 -1125 0 -1126 0
71 92 c70 90 71 92 48 101 -88 33 -890 327 -893 327 -1 0 -43 -48 -92 -107z
m2031 -1165 c-20 -34 -156 -225 -228 -318 -254 -334 -585 -675 -975 -1005
l-93 -79 -22 25 c-11 14 -94 113 -182 220 -188 226 -293 344 -565 639 -110
118 -198 219 -197 225 2 5 55 53 118 107 63 53 140 119 170 147 l55 50 963 1
c768 0 962 -3 956 -12z m-2746 -885 c266 -282 465 -510 694 -796 67 -84 127
-159 135 -169 13 -14 7 -21 -59 -64 -212 -137 -708 -434 -726 -434 -6 0 -12 6
-15 13 -2 6 -58 84 -124 172 -194 260 -421 526 -693 810 -58 61 -115 122 -128
136 l-23 26 178 95 c185 99 394 222 523 307 41 27 80 50 87 50 6 1 74 -65 151
-146z"/>
<path d="M20040 31795 l0 -465 2450 0 2450 0 -2 -1142 c-3 -1120 -3 -1144 -23
-1183 -28 -56 -69 -76 -172 -84 -48 -4 -449 -4 -892 0 -443 4 -808 5 -810 3
-3 -3 210 -953 240 -1067 l10 -38 987 4 c983 3 987 3 1086 26 316 71 514 225
602 464 61 171 58 78 61 1615 l4 1402 2474 0 2475 0 0 465 0 465 -5470 0
-5470 0 0 -465z"/>
<path d="M22357 30893 c-643 -708 -1354 -1222 -2224 -1609 -120 -53 -562 -232
-636 -258 -11 -3 -15 -11 -11 -17 4 -7 158 -206 342 -443 226 -291 339 -430
350 -428 45 10 428 181 642 288 601 298 1096 626 1582 1051 246 214 634 615
887 917 76 90 81 99 64 111 -28 19 -864 525 -867 525 -2 0 -60 -62 -129 -137z"/>
<path d="M27842 30623 c-183 -207 -332 -380 -332 -383 0 -3 145 -78 323 -167
1088 -548 1925 -1097 2850 -1871 82 -68 152 -120 157 -116 17 20 650 936 650
942 0 8 -28 31 -250 201 -836 639 -1644 1135 -2490 1526 -193 89 -523 233
-552 240 -22 6 -57 -30 -356 -372z"/>
</g>
</svg>
